<svg xmlns="http://www.w3.org/2000/svg" viewBox="0 0 50 50"><defs><style>.cls-1{fill:#26bde2;}.cls-2{fill:#fff;}</style></defs><title>6</title><g id="Calque_2" data-name="Calque 2"><g id="Calque_1_-_copie_14" data-name="Calque 1 - copie 14"><rect class="cls-1" width="50" height="50"/><path class="cls-2" d="M25,43.25a9.3,9.3,0,0,1-5.51-1.51,8.71,8.71,0,0,1-3.12-4.16,17,17,0,0,1-1-6V18.92a21.79,21.79,0,0,1,.82-6.24,8.19,8.19,0,0,1,2.87-4.35A9.49,9.49,0,0,1,25,6.75a11.26,11.26,0,0,1,5.25,1,6.13,6.13,0,0,1,2.83,3.05,12.42,12.42,0,0,1,.88,5c0,.08,0,.18,0,.28a1.52,1.52,0,0,1,0,.29H27.59A9.34,9.34,0,0,0,27.15,13c-.29-.73-1-1.1-2.11-1.1a2.08,2.08,0,0,0-1.64.66,4.29,4.29,0,0,0-.84,2.22,29.7,29.7,0,0,0-.24,4.28v3.65a3.71,3.71,0,0,1,1.78-1.5,7.44,7.44,0,0,1,2.79-.57,6.71,6.71,0,0,1,4.5,1.25,7.48,7.48,0,0,1,2.44,3.7,17.33,17.33,0,0,1,.75,5.29,21.64,21.64,0,0,1-.88,6.41,8.41,8.41,0,0,1-3,4.37A9.29,9.29,0,0,1,25,43.25Zm.09-5a1.92,1.92,0,0,0,1.65-.75,4.81,4.81,0,0,0,.75-2.11,23.62,23.62,0,0,0,.19-3.29c0-1.23,0-2.31-.11-3.23a4.19,4.19,0,0,0-.68-2.17A2.16,2.16,0,0,0,25,25.86a2.87,2.87,0,0,0-1.16.24,3.11,3.11,0,0,0-.94.61,3.28,3.28,0,0,0-.62.77v5.67a12.28,12.28,0,0,0,.24,2.48,4,4,0,0,0,.86,1.87A2.15,2.15,0,0,0,25.13,38.2Z"/></g></g></svg>