<svg xmlns="http://www.w3.org/2000/svg" viewBox="0 0 50 50"><defs><style>.cls-1{fill:#3f7e44;}.cls-2{fill:#fff;}</style></defs><title>13</title><g id="Calque_2" data-name="Calque 2"><g id="Calque_1_-_copie_21" data-name="Calque 1 - copie 21"><rect class="cls-1" width="50" height="50"/><path class="cls-2" d="M11.71,42.72V14.17a6.79,6.79,0,0,1-1.07.46l-1.48.53-1.49.53c-.47.16-.83.3-1.1.41v-5L8,10.39c.6-.29,1.24-.61,1.91-1a18.89,18.89,0,0,0,1.91-1.14,8.55,8.55,0,0,0,1.39-1.15h5.27V42.72Z"/><path class="cls-2" d="M33.9,43.34A10.38,10.38,0,0,1,28.25,42a7.52,7.52,0,0,1-3-3.78,15.84,15.84,0,0,1-.92-5.6V31.35h6.76v1.18a15.85,15.85,0,0,0,.29,2.84,3.16,3.16,0,0,0,.86,1.69,2.47,2.47,0,0,0,1.75.57A2.37,2.37,0,0,0,35.74,37a3.44,3.44,0,0,0,.79-1.74,14.89,14.89,0,0,0,.22-2.81A8.85,8.85,0,0,0,36,28.34c-.53-1-1.58-1.49-3.16-1.52H31.61v-5h1.06c1.58,0,2.65-.42,3.22-1.27a7.22,7.22,0,0,0,.86-4,7.25,7.25,0,0,0-.61-3.29,2.35,2.35,0,0,0-2.29-1.19,2.13,2.13,0,0,0-2.2,1.32,9.85,9.85,0,0,0-.57,3.38v1.58H24.32V16.41a11.27,11.27,0,0,1,1.14-5.29A7.83,7.83,0,0,1,28.71,7.8a10.7,10.7,0,0,1,5.14-1.14A11.29,11.29,0,0,1,39,7.76,7.46,7.46,0,0,1,42.31,11a11.15,11.15,0,0,1,1.12,5.23,9.56,9.56,0,0,1-1.3,5.19A5.75,5.75,0,0,1,39,24a5.84,5.84,0,0,1,2.32,1.45,6.79,6.79,0,0,1,1.59,2.7,13.32,13.32,0,0,1,.57,4.2,16.4,16.4,0,0,1-.92,5.69,7.8,7.8,0,0,1-3,3.88A9.84,9.84,0,0,1,33.9,43.34Z"/></g></g></svg>