<svg xmlns="http://www.w3.org/2000/svg" viewBox="0 0 50 50"><defs><style>.cls-1{fill:#a21942;}.cls-2{fill:#fff;}</style></defs><title>8</title><g id="Calque_2" data-name="Calque 2"><g id="Calque_1_-_copie_11" data-name="Calque 1 - copie 11"><rect class="cls-1" width="50" height="50"/><path class="cls-2" d="M25,43.27a10.16,10.16,0,0,1-5.63-1.38,7.59,7.59,0,0,1-3-3.89,16.81,16.81,0,0,1-.9-5.71,13.14,13.14,0,0,1,.27-2.72,9.26,9.26,0,0,1,.79-2.33,8,8,0,0,1,1.29-1.87A6.51,6.51,0,0,1,19.64,24a9.1,9.1,0,0,1-2.53-3A10.12,10.12,0,0,1,16,16.21a11.23,11.23,0,0,1,1-5.07,7.17,7.17,0,0,1,3-3.27,10.06,10.06,0,0,1,5-1.14,10.06,10.06,0,0,1,5,1.14,7,7,0,0,1,3,3.27,11.81,11.81,0,0,1,.92,5.07,10.68,10.68,0,0,1-1.07,4.9A8,8,0,0,1,30.31,24a6.46,6.46,0,0,1,1.82,1.34,7.72,7.72,0,0,1,1.3,1.87,10.15,10.15,0,0,1,.81,2.33,12.46,12.46,0,0,1,.29,2.72A14.88,14.88,0,0,1,33.67,38a7.84,7.84,0,0,1-3,3.89A10.1,10.1,0,0,1,25,43.27Zm0-5.05a2.16,2.16,0,0,0,1.89-.88,4.84,4.84,0,0,0,.78-2.15,17.6,17.6,0,0,0,.18-2.46A15.2,15.2,0,0,0,27.7,30a4.91,4.91,0,0,0-.81-2.16A2.23,2.23,0,0,0,25,27a2.22,2.22,0,0,0-1.87.83A4.65,4.65,0,0,0,22.29,30a18.42,18.42,0,0,0-.19,2.74,19.63,19.63,0,0,0,.17,2.48,4.59,4.59,0,0,0,.82,2.16A2.22,2.22,0,0,0,25,38.22Zm0-16.73a1.75,1.75,0,0,0,1.42-.66,4.37,4.37,0,0,0,.82-1.89A14.44,14.44,0,0,0,27.5,16a6.78,6.78,0,0,0-.59-3A2,2,0,0,0,25,11.82,2.1,2.1,0,0,0,23,13a6.24,6.24,0,0,0-.64,3,14.89,14.89,0,0,0,.25,2.93,4,4,0,0,0,.83,1.91A2,2,0,0,0,25,21.49Z"/></g></g></svg>