<svg xmlns="http://www.w3.org/2000/svg" viewBox="0 0 50 50"><defs><style>.cls-1{fill:#dd1367;}.cls-2{fill:#fff;}</style></defs><title>10</title><g id="Calque_2" data-name="Calque 2"><g id="Calque_1_-_copie_17" data-name="Calque 1 - copie 17"><rect class="cls-1" width="50" height="50"/><path class="cls-2" d="M11.4,42.72V14.17a6.79,6.79,0,0,1-1.07.46l-1.47.53-1.5.53c-.47.16-.83.3-1.09.41v-5l1.42-.71c.6-.29,1.24-.61,1.91-1a17.84,17.84,0,0,0,1.91-1.14A8.14,8.14,0,0,0,12.9,7.14h5.27V42.72Z"/><path class="cls-2" d="M34.29,43.34A9.81,9.81,0,0,1,29,42a8.21,8.21,0,0,1-3.17-3.62,12.79,12.79,0,0,1-1-5.34v-16a13.61,13.61,0,0,1,1-5.46A7.84,7.84,0,0,1,28.89,8a10,10,0,0,1,5.4-1.32A9.83,9.83,0,0,1,39.63,8a8,8,0,0,1,3.1,3.67,13.78,13.78,0,0,1,1,5.46v16a12.79,12.79,0,0,1-1,5.34A8.19,8.19,0,0,1,39.52,42,9.69,9.69,0,0,1,34.29,43.34Zm0-6A1.94,1.94,0,0,0,36,36.62a4.36,4.36,0,0,0,.71-1.78,12.27,12.27,0,0,0,.17-1.91V17.25a14.25,14.25,0,0,0-.15-2,4.28,4.28,0,0,0-.68-1.83,2,2,0,0,0-1.76-.77,2,2,0,0,0-1.78.77,4.17,4.17,0,0,0-.7,1.83,14.31,14.31,0,0,0-.16,2V32.93a11.24,11.24,0,0,0,.18,1.91,4,4,0,0,0,.75,1.78A2,2,0,0,0,34.29,37.37Z"/></g></g></svg>