<svg xmlns="http://www.w3.org/2000/svg" viewBox="0 0 50 50"><defs><style>.cls-1{fill:#00689d;}.cls-2{fill:#fff;}</style></defs><title>16</title><g id="Calque_2" data-name="Calque 2"><g id="Calque_1_-_copie_23" data-name="Calque 1 - copie 23"><rect class="cls-1" width="50" height="50"/><path class="cls-2" d="M11.36,42.77V14.22a7.56,7.56,0,0,1-1.08.46l-1.47.52-1.49.53c-.47.16-.84.3-1.1.42v-5l1.43-.7c.6-.29,1.24-.62,1.91-1a18.89,18.89,0,0,0,1.91-1.14,8,8,0,0,0,1.38-1.14h5.28V42.77Z"/><path class="cls-2" d="M34.25,43.25a9.31,9.31,0,0,1-5.52-1.51,8.71,8.71,0,0,1-3.12-4.16,17.22,17.22,0,0,1-1-6V18.92a22.16,22.16,0,0,1,.81-6.24,8.15,8.15,0,0,1,2.88-4.35A9.51,9.51,0,0,1,34.2,6.75a11.26,11.26,0,0,1,5.25,1,6.19,6.19,0,0,1,2.84,3.05,12.6,12.6,0,0,1,.87,5,1.49,1.49,0,0,0,0,.28c0,.11,0,.2,0,.29H36.79A9.37,9.37,0,0,0,36.35,13c-.29-.73-1-1.1-2.1-1.1a2.09,2.09,0,0,0-1.65.66,4.29,4.29,0,0,0-.83,2.22,28.09,28.09,0,0,0-.25,4.28v3.65a3.75,3.75,0,0,1,1.78-1.5,7.53,7.53,0,0,1,2.79-.57,6.73,6.73,0,0,1,4.5,1.25A7.48,7.48,0,0,1,43,25.62a17.33,17.33,0,0,1,.75,5.29,21.32,21.32,0,0,1-.88,6.41,8.4,8.4,0,0,1-3,4.37A9.33,9.33,0,0,1,34.25,43.25Zm.08-5A1.9,1.9,0,0,0,36,37.45a4.58,4.58,0,0,0,.75-2.11,23.45,23.45,0,0,0,.2-3.29c0-1.23,0-2.31-.11-3.23a4.29,4.29,0,0,0-.68-2.17,2.18,2.18,0,0,0-1.89-.79,2.92,2.92,0,0,0-1.17.24,3.34,3.34,0,0,0-1.56,1.38v5.67a11.59,11.59,0,0,0,.25,2.48,4,4,0,0,0,.85,1.87A2.15,2.15,0,0,0,34.33,38.2Z"/></g></g></svg>