<svg xmlns="http://www.w3.org/2000/svg" viewBox="0 0 50 50"><defs><style>.cls-1{fill:#4c9f38;}.cls-2{fill:#fff;}</style></defs><title>3</title><g id="Calque_2" data-name="Calque 2"><g id="Calque_1_-_copie_12" data-name="Calque 1 - copie 12"><rect class="cls-1" width="50" height="50"/><path class="cls-2" d="M25,43.34A10.37,10.37,0,0,1,19.38,42a7.47,7.47,0,0,1-3-3.78,15.62,15.62,0,0,1-.92-5.6V31.35h6.76v1.18a15,15,0,0,0,.29,2.84,3.15,3.15,0,0,0,.85,1.69,2.5,2.5,0,0,0,1.76.57A2.37,2.37,0,0,0,26.87,37a3.44,3.44,0,0,0,.79-1.74,15.77,15.77,0,0,0,.22-2.81,9,9,0,0,0-.79-4.15c-.53-1-1.58-1.49-3.17-1.52H22.74v-5h1.05c1.58,0,2.66-.42,3.23-1.27a7.31,7.31,0,0,0,.86-4,7.24,7.24,0,0,0-.62-3.29A2.33,2.33,0,0,0,25,12.06a2.12,2.12,0,0,0-2.2,1.32,9.85,9.85,0,0,0-.57,3.38v1.58H15.45V16.41a11.27,11.27,0,0,1,1.14-5.29A7.77,7.77,0,0,1,19.84,7.8,10.67,10.67,0,0,1,25,6.66a11.29,11.29,0,0,1,5.18,1.1A7.39,7.39,0,0,1,33.43,11a11,11,0,0,1,1.12,5.23,9.65,9.65,0,0,1-1.29,5.19A5.8,5.8,0,0,1,30.07,24a5.87,5.87,0,0,1,2.33,1.45A6.78,6.78,0,0,1,34,28.16a13.32,13.32,0,0,1,.57,4.2,16.17,16.17,0,0,1-.92,5.69,7.72,7.72,0,0,1-3,3.88A9.88,9.88,0,0,1,25,43.34Z"/></g></g></svg>