<svg xmlns="http://www.w3.org/2000/svg" viewBox="0 0 50 50"><defs><style>.cls-1{fill:#fd6925;}.cls-2{fill:#fff;}</style></defs><title>9</title><g id="Calque_2" data-name="Calque 2"><g id="Calque_1_-_copie_16" data-name="Calque 1 - copie 16"><rect class="cls-1" width="50" height="50"/><path class="cls-2" d="M25,43.25a11.43,11.43,0,0,1-5.27-1,6,6,0,0,1-2.85-3.08,12.5,12.5,0,0,1-.88-5v-.53h6.41A9,9,0,0,0,22.89,37c.31.73,1,1.1,2.18,1.1a2,2,0,0,0,1.62-.66,4.36,4.36,0,0,0,.79-2.24,31.87,31.87,0,0,0,.22-4.26V27.26a4,4,0,0,1-1.8,1.5,7.2,7.2,0,0,1-2.72.57,6.73,6.73,0,0,1-4.57-1.39,7.74,7.74,0,0,1-2.44-3.84,18.73,18.73,0,0,1-.72-5.36,19.38,19.38,0,0,1,.92-6.33,8.19,8.19,0,0,1,3.05-4.17A9.61,9.61,0,0,1,25,6.75a9.52,9.52,0,0,1,5.49,1.43,8.13,8.13,0,0,1,3.08,4,16.93,16.93,0,0,1,1,6v13a22.56,22.56,0,0,1-.79,6.24,8.05,8.05,0,0,1-2.85,4.35A9.56,9.56,0,0,1,25,43.25Zm.05-19.11a2.39,2.39,0,0,0,1.64-.55,5.06,5.06,0,0,0,1-1.07V16.85a12.92,12.92,0,0,0-.22-2.5,4.08,4.08,0,0,0-.79-1.85A2,2,0,0,0,25,11.8a2,2,0,0,0-1.67.75,4.57,4.57,0,0,0-.77,2.1,23.88,23.88,0,0,0-.19,3.3c0,1.2,0,2.27.13,3.21a4.53,4.53,0,0,0,.68,2.19A2.1,2.1,0,0,0,25.07,24.14Z"/></g></g></svg>