<svg xmlns="http://www.w3.org/2000/svg" viewBox="0 0 50 50"><defs><style>.cls-1{fill:#bf8b2e;}.cls-2{fill:#fff;}</style></defs><title>12</title><g id="Calque_2" data-name="Calque 2"><g id="Calque_1_-_copie_20" data-name="Calque 1 - copie 20"><rect class="cls-1" width="50" height="50"/><path class="cls-2" d="M11.62,43V14.46a7.88,7.88,0,0,1-1.07.46l-1.47.53L7.58,16c-.47.16-.83.3-1.1.42v-5l1.43-.7c.6-.29,1.24-.62,1.91-1a17.84,17.84,0,0,0,1.91-1.14,8.15,8.15,0,0,0,1.39-1.14h5.27V43Z"/><path class="cls-2" d="M24.36,43V38.22L33,24.91c.64-1,1.25-1.95,1.82-2.85a16.61,16.61,0,0,0,1.41-2.79,8.56,8.56,0,0,0,.54-3.06,4.45,4.45,0,0,0-.65-2.61,2.2,2.2,0,0,0-1.89-.9,2.68,2.68,0,0,0-2,.72,3.93,3.93,0,0,0-1,1.92A11.66,11.66,0,0,0,31,17.93V19.6H24.36V17.84a15,15,0,0,1,1-5.62,8.08,8.08,0,0,1,3.12-3.85A10.16,10.16,0,0,1,34.07,7q4.7,0,7.07,2.46a9.5,9.5,0,0,1,2.38,6.9,11.56,11.56,0,0,1-.66,4,17.72,17.72,0,0,1-1.74,3.52c-.72,1.12-1.49,2.29-2.31,3.49L32,37.65H42.55V43Z"/></g></g></svg>