<svg xmlns="http://www.w3.org/2000/svg" viewBox="0 0 50 50"><defs><style>.cls-1{fill:#dda63a;}.cls-2{fill:#fff;}</style></defs><title>2</title><g id="Calque_2" data-name="Calque 2"><g id="Calque_1_-_copie_13" data-name="Calque 1 - copie 13"><rect class="cls-1" width="50" height="50"/><path class="cls-2" d="M15.42,43V38.22l8.66-13.31c.64-1,1.25-1.95,1.82-2.85a16.61,16.61,0,0,0,1.41-2.79,8.57,8.57,0,0,0,.55-3.06,4.44,4.44,0,0,0-.66-2.61,2.2,2.2,0,0,0-1.89-.9,2.68,2.68,0,0,0-2,.72,3.93,3.93,0,0,0-1,1.92,11.66,11.66,0,0,0-.26,2.59V19.6H15.42V17.84a15,15,0,0,1,1-5.62,8.08,8.08,0,0,1,3.12-3.85A10.16,10.16,0,0,1,25.13,7c3.14,0,5.49.82,7.07,2.46a9.5,9.5,0,0,1,2.38,6.9,11.56,11.56,0,0,1-.66,4,17.72,17.72,0,0,1-1.74,3.52c-.72,1.12-1.48,2.29-2.31,3.49L23,37.65H33.61V43Z"/></g></g></svg>