<svg xmlns="http://www.w3.org/2000/svg" viewBox="0 0 50 50"><defs><style>.cls-1{fill:#0a97d9;}.cls-2{fill:#fff;}</style></defs><title>14</title><g id="Calque_2" data-name="Calque 2"><g id="Calque_1_-_copie_22" data-name="Calque 1 - copie 22"><rect class="cls-1" width="50" height="50"/><path class="cls-2" d="M11.19,42.79V14.24a8.71,8.71,0,0,1-1.08.46l-1.47.53-1.5.52c-.47.16-.83.3-1.09.42v-5l1.42-.7c.6-.29,1.24-.62,1.91-1a17.84,17.84,0,0,0,1.91-1.14,8.15,8.15,0,0,0,1.39-1.14H18V42.79Z"/><path class="cls-2" d="M34.16,42.79v-8.3H23.35V29.17l9.27-22h7.91v22.1H44v5.18H40.53v8.3ZM28.71,29.31h5.45V14.19Z"/></g></g></svg>