<svg xmlns="http://www.w3.org/2000/svg" viewBox="0 0 50 50"><defs><style>.cls-1{fill:#56c02b;}.cls-2{fill:#fff;}</style></defs><title>15</title><g id="Calque_2" data-name="Calque 2"><g id="Calque_1_-_copie_19" data-name="Calque 1 - copie 19"><rect class="cls-1" width="50" height="50"/><path class="cls-2" d="M11.8,42.48V13.93a6.56,6.56,0,0,1-1.08.46l-1.47.53-1.49.53c-.47.16-.84.3-1.1.41v-5l1.43-.7c.6-.29,1.23-.61,1.91-1A21,21,0,0,0,11.91,8,8,8,0,0,0,13.29,6.9h5.28V42.48Z"/><path class="cls-2" d="M33.81,43.1a10.07,10.07,0,0,1-5.71-1.36,6.85,6.85,0,0,1-2.71-3.83,20.53,20.53,0,0,1-.72-5.75h6.55a18.54,18.54,0,0,0,.24,3.25,3.72,3.72,0,0,0,.88,2,2.4,2.4,0,0,0,1.91.61,2.09,2.09,0,0,0,1.84-1,5.88,5.88,0,0,0,.7-2.64c.09-1.14.14-2.49.14-4A23.46,23.46,0,0,0,36.71,27a5,5,0,0,0-.86-2.28,2.31,2.31,0,0,0-2-.84,2.52,2.52,0,0,0-1.95.84,5,5,0,0,0-1.12,2.37H25L25.5,6.9H41.85v5.84H31.08l-.39,7.87a4.09,4.09,0,0,1,1.78-1.14,8.72,8.72,0,0,1,2.7-.58A6.56,6.56,0,0,1,39.76,20a7.73,7.73,0,0,1,2.7,3.89,19.35,19.35,0,0,1,.88,6.26A36.56,36.56,0,0,1,43,35.3a11.62,11.62,0,0,1-1.36,4.13,6.89,6.89,0,0,1-2.9,2.7A10.87,10.87,0,0,1,33.81,43.1Z"/></g></g></svg>