<svg xmlns="http://www.w3.org/2000/svg" viewBox="0 0 50 50"><defs><style>.cls-1{fill:#ff3a21;}.cls-2{fill:#fff;}</style></defs><title>5</title><g id="Calque_2" data-name="Calque 2"><g id="Calque_1_-_copie_10" data-name="Calque 1 - copie 10"><rect class="cls-1" width="50" height="50"/><path class="cls-2" d="M24.8,43.1a10.1,10.1,0,0,1-5.71-1.36,6.78,6.78,0,0,1-2.7-3.83,20.48,20.48,0,0,1-.72-5.75h6.54a18.54,18.54,0,0,0,.24,3.25,3.8,3.8,0,0,0,.88,2,2.42,2.42,0,0,0,1.91.61,2.11,2.11,0,0,0,1.85-1,6,6,0,0,0,.7-2.64c.09-1.14.13-2.49.13-4A22.08,22.08,0,0,0,27.7,27a4.76,4.76,0,0,0-.86-2.28,2.28,2.28,0,0,0-1.95-.84,2.52,2.52,0,0,0-1.95.84,5,5,0,0,0-1.12,2.37H16L16.5,6.9H32.84v5.84H22.08l-.4,7.87a4.15,4.15,0,0,1,1.78-1.14,8.84,8.84,0,0,1,2.7-.58A6.53,6.53,0,0,1,30.75,20a7.68,7.68,0,0,1,2.71,3.89,19.65,19.65,0,0,1,.87,6.26A35.15,35.15,0,0,1,34,35.3a11.23,11.23,0,0,1-1.36,4.13,6.83,6.83,0,0,1-2.9,2.7A10.74,10.74,0,0,1,24.8,43.1Z"/></g></g></svg>