<svg xmlns="http://www.w3.org/2000/svg" viewBox="0 0 50 50"><defs><style>.cls-1{fill:#fd9d24;}.cls-2{fill:#fff;}</style></defs><title>11</title><g id="Calque_2" data-name="Calque 2"><g id="Calque_1_-_copie_18" data-name="Calque 1 - copie 18"><rect class="cls-1" width="50" height="50"/><path class="cls-2" d="M15.62,42.79V14.24a7.88,7.88,0,0,1-1.07.46l-1.48.53-1.49.52c-.47.16-.83.3-1.1.42v-5l1.43-.7c.6-.29,1.24-.62,1.91-1a18.89,18.89,0,0,0,1.91-1.14,8.56,8.56,0,0,0,1.39-1.14h5.27V42.79Z"/><path class="cls-2" d="M32.75,42.79V14.24a7.88,7.88,0,0,1-1.07.46l-1.48.53-1.49.52c-.47.16-.83.3-1.1.42v-5l1.43-.7c.6-.29,1.24-.62,1.91-1a17.84,17.84,0,0,0,1.91-1.14,8.56,8.56,0,0,0,1.39-1.14h5.27V42.79Z"/></g></g></svg>